<svg xmlns="http://www.w3.org/2000/svg" xmlns:xlink="http://www.w3.org/1999/xlink" width="78px" height="91px" viewBox="0 0 78 91" version="1.1" class="svg replaced-svg">
    <!-- Generator: Sketch 56.3 (81716) - https://sketch.com -->
    <title>Group</title>
    <desc>Created with Sketch.</desc>
    <g id="Page-1" stroke="none" stroke-width="1" fill="none" fill-rule="evenodd">
        <g id="Escudo-68-Estrellas" transform="translate(-332.000000, -2209.000000)">
            <g id="Group" transform="translate(332.000000, 2209.000000)">
                <path d="M57.0685677,2.60363475 L75.9868177,16.4399323 C76.6735385,44.464052 64.6387885,74.6578186 38.9940515,88.7349053 C13.3424346,74.6541886 1.32444111,44.4666389 2.00179176,16.4395568 L20.9195353,2.60363475 C30.5342171,11.5392423 47.4539281,11.5392423 57.0685677,2.60363475" id="Fill-97" fill="#103F79"/>
                <path d="M56.8440096,0 C56.8440096,0 51.028409,7.31050023 38.9940388,7.31050023 C26.9596687,7.31050023 21.1441103,0 21.1441103,0 L0.0534252039,15.4251884 C0.0534252039,15.4251884 -3.09734428,68.7260289 38.9940388,90.9680812 L38.9940388,90.9680812 L38.9940388,90.9680812 C81.085422,68.7260289 77.9346947,15.4251884 77.9346947,15.4251884 L56.8440096,0 Z M57.1682077,4.96018845 L74.1443505,17.3761183 C74.3670388,44.1328721 63.2989739,72.7776359 38.9940388,86.6256162 C14.6907077,72.7782201 3.61749339,44.1268638 3.84414923,17.3758262 L20.8199122,4.96018845 C25.8865356,9.073547 32.4402661,11.1294961 38.99387,11.1294961 C50.4947759,11.1294961 57.1682077,4.96018845 57.1682077,4.96018845 L57.1682077,4.96018845 Z" id="Fill-99" fill="#F3B229"/>
                <polygon id="Fill-101" fill="#F3B229" points="39.0143281 70.0807856 39.5531528 71.6191071 41.1837242 71.6660048 39.8790814 72.6428049 40.3494872 74.2132955 39.0094742 73.2766756 37.6614418 74.2026142 38.1358996 72.6428049 36.8379677 71.6539883 38.4727177 71.6218191"/>
                <polygon id="Fill-103" fill="#F3B229" points="47.2597765 70.98726 47.7987278 72.5255397 49.4354616 72.5631747 48.1246986 73.5506978 48.6032505 75.1138033 47.2550914 74.1818148 45.9152051 75.1090885 46.3828674 73.5453572 45.0828674 72.5530775 46.7190525 72.5255397"/>
                <polygon id="Fill-105" fill="#F3B229" points="30.7712392 70.9859582 31.301369 72.528911 32.9368366 72.5718449 31.6381872 73.548645 32.1085086 75.115756 30.7604762 74.1824323 29.4082651 75.1051164 29.8868171 73.548645 28.5882522 72.5564905 30.2277716 72.5216093"/>
                <polygon id="Fill-107" fill="#F3B229" points="35.2838642 74.6158401 35.8140362 76.1587929 37.4495038 76.2017269 36.1508544 77.178527 36.6211759 78.7456379 35.2731434 77.8123142 33.9209323 78.7349983 34.3994843 77.178527 33.1009194 76.1863724 34.7404388 76.1514912"/>
                <polygon id="Fill-109" fill="#F3B229" points="42.7572012 74.6158401 43.2873733 76.1587929 44.9228408 76.2017269 43.6241914 77.178527 44.0945129 78.7456379 42.7464804 77.8123142 41.3942694 78.7349983 41.8728213 77.178527 40.5742564 76.1863724 42.2137759 76.1514912"/>
                <polygon id="Fill-111" fill="#F3B229" points="39.0207395 78.4962328 39.5493921 80.0398949 41.1854505 80.0828289 39.8862103 81.0603383 40.3565739 82.6267399 39.0085414 81.693458 37.6570479 82.6166845 38.1361486 81.0603383 36.838259 80.0687262 38.4758791 80.0331773"/>
                <polygon id="Fill-113" fill="#F3B229" points="39.0175233 61.9473175 39.5461759 63.4976971 41.1903804 63.5265284 39.8715557 64.513384 40.3398934 66.0785339 39.0127538 65.1471712 37.6640882 66.0744867 38.137744 64.5114229 36.829809 63.515096 38.4704681 63.4909796"/>
                <polygon id="Fill-115" fill="#F3B229" points="31.221533 62.3648118 31.7501856 63.9151914 33.3943901 63.943981 32.0755655 64.9308783 32.5439031 66.4959865 31.2167635 65.5646655 29.8680557 66.491981 30.3417538 64.9289172 29.0338187 63.9325903 30.6745622 63.9084739"/>
                <polygon id="Fill-117" fill="#F3B229" points="46.8176794 62.3648118 47.3402541 63.9151914 48.9870755 63.943981 47.6723028 64.9308783 48.1324522 66.4959865 46.8094489 65.5646655 45.4579554 66.491981 45.933806 64.9289172 44.6251112 63.9325903 46.263871 63.9084739"/>
                <polygon id="Fill-119" fill="#F3B229" points="23.4222421 62.7839667 23.9616999 64.3269195 25.5930733 64.3524128 24.2917648 65.3513684 24.7629304 66.9118035 23.4154044 65.9771029 22.0768687 66.9050859 22.5472323 65.3413129 21.2432648 64.3524128 22.8834174 64.3309667"/>
                <polygon id="Fill-121" fill="#F3B229" points="54.6109135 62.7833116 55.1463616 64.3262644 56.7804362 64.3638577 55.4669297 65.3454144 55.9474233 66.9125253 54.6040759 65.9832071 53.2554103 66.9030957 53.7312187 65.3487105 52.4237479 64.3517578 54.0720888 64.3262644"/>
                <polygon id="Fill-123" fill="#F3B229" points="26.6874875 67.353456 27.2269453 68.890484 28.868533 68.9273262 27.5591629 69.9221928 28.0300752 71.4839631 26.6874875 70.5499718 25.3408057 71.4718214 25.8110849 69.9194807 24.5077505 68.9219438 26.150731 68.8972432"/>
                <polygon id="Fill-125" fill="#F3B229" points="51.3437645 67.3541903 51.8785372 68.8972265 53.5159463 68.9400771 52.2072515 69.9181289 52.6809918 71.4839881 51.3329593 70.5499551 49.9828164 71.4738909 50.464745 69.9181289 49.1660957 68.9259326 50.8016054 68.8904673"/>
                <polygon id="Fill-127" fill="#F3B229" points="43.1297736 66.3068517 43.6611697 67.8505972 45.2979457 67.8927384 43.9986632 68.8709571 44.4697022 70.4366495 43.1189684 69.5034092 41.7681502 70.4266357 42.246069 68.8709571 40.9488125 67.8787192 42.5876567 67.8432121"/>
                <polygon id="Fill-129" fill="#F3B229" points="34.9164031 66.3055958 35.4456044 67.8485068 37.081072 67.8840974 35.7722927 68.8830112 36.2468349 70.4393574 34.9108317 69.5027375 33.5600135 70.433975 34.0358642 68.8742492 32.7304616 67.8813853 34.3713739 67.8485068"/>
                <polygon id="Fill-131" fill="#F3B229" points="27.7466836 58.2548996 28.2929791 59.7911766 29.929122 59.8239299 28.6216512 60.8216754 29.0946739 62.3833623 27.7466836 61.4554627 26.4054466 62.3727227 26.8771187 60.815542 25.5697746 59.8192985 27.2105181 59.7925117"/>
                <polygon id="Fill-133" fill="#F3B229" points="50.2827577 58.2562306 50.8147447 59.7958038 52.4516051 59.8387377 51.144894 60.8202944 51.6192252 62.3813553 50.2677739 61.4507437 48.9211343 62.3739702 49.4023453 60.8202944 48.1009947 59.8280147 49.7370953 59.7872086"/>
                <polygon id="Fill-135" fill="#F3B229" points="20.241197 58.6710796 20.7840314 60.2174121 22.4162067 60.2602209 21.114856 61.2451571 21.583869 62.8022543 20.2384112 61.873562 18.8856515 62.8015867 19.3695216 61.235811 18.0648366 60.2454923 19.7003463 60.2174121"/>
                <polygon id="Fill-137" fill="#F3B229" points="57.7968168 58.6771088 58.3240765 60.2093802 59.9589109 60.250228 58.652833 61.2424659 59.1266999 62.7967676 57.7899791 61.8662394 56.4419466 62.7934714 56.9156447 61.2370835 55.6116772 60.2374604 57.2437259 60.2093802"/>
                <polygon id="Fill-139" fill="#F3B229" points="35.2731138 57.4145411 35.7989807 58.9662977 37.4356723 59.0045168 36.1263444 59.9966713 36.6000002 61.5536851 35.2595229 60.6130597 33.9180749 61.5498048 34.3851885 59.9886603 33.0811788 58.9903724 34.7219223 58.9635856"/>
                <polygon id="Fill-141" fill="#F3B229" points="42.7798288 57.4186134 43.3084814 58.9655717 44.9411632 59.0011205 43.6365203 59.9920233 44.1157898 61.5491205 42.7650138 60.6124589 41.4182054 61.5491205 41.8920723 59.9846381 40.5935073 58.9956964 42.2267379 58.9608569"/>
                <polygon id="Fill-143" fill="#F3B229" points="60.9115577 53.6594622 61.4504246 55.2024984 63.0959797 55.2420528 61.7845414 56.2335814 62.2494603 57.79531 60.9115577 56.8600253 59.5675349 57.7912628 60.0318629 56.2276149 58.7373077 55.2272408 60.3720999 55.2024984"/>
                <polygon id="Fill-145" fill="#F3B229" points="17.1033768 53.6594622 17.641484 55.2024984 19.2870814 55.2420528 17.9763184 56.2335814 18.4398866 57.79531 17.1033768 56.8600253 15.7593541 57.7912628 16.2230067 56.2276149 14.927734 55.2272408 16.5625684 55.2024984"/>
                <polygon id="Fill-147" fill="#F3B229" points="53.6253573 53.6622035 54.1513086 55.2098711 55.7880002 55.2446689 54.4826398 56.2349041 54.9611496 57.7919596 53.6104158 56.8553397 52.2657177 57.7919596 52.7368411 56.2281865 51.4422437 55.2392865 53.0783866 55.2044887"/>
                <polygon id="Fill-149" fill="#F3B229" points="24.4018174 53.6581187 24.9433856 55.2098752 26.5883077 55.2432961 25.2822297 56.2315703 25.7410707 57.7960527 24.4018174 56.8553438 23.051759 57.788 23.5317038 56.2315703 22.2295934 55.23395 23.866496 55.2044928"/>
                <polygon id="Fill-151" fill="#F3B229" points="31.703356 53.2406369 32.2449664 54.7923517 33.8898463 54.8258144 32.5837684 55.8140885 33.0426515 57.3785709 31.703356 56.437862 30.3532976 57.3705182 30.8332424 55.8140885 29.531132 54.8164682 31.1679924 54.787011"/>
                <polygon id="Fill-153" fill="#F3B229" points="46.3169346 53.2453601 46.8549996 54.7936535 48.4844736 54.8305375 47.1809703 55.8188117 47.6520937 57.3744903 46.3087885 56.443211 44.9654411 57.3731968 45.4365223 55.8188117 44.1426424 54.8191469 45.7754086 54.7849749"/>
                <polygon id="Fill-155" fill="#F3B229" points="39.0223054 52.8272274 39.548932 54.374895 41.1849483 54.4097345 39.8803054 55.399928 40.3567047 56.9570252 39.0073216 56.0203635 37.6626658 56.9570252 38.1330716 55.3932104 36.8391073 54.4043104 38.4760099 54.3695126"/>
                <polygon id="Fill-157" fill="#F3B229" points="56.062756 48.1144621 56.6015807 49.6573315 58.2471781 49.6968858 56.9356976 50.6884979 57.4007009 52.2502682 56.062756 51.3148583 54.7187755 52.2461792 55.1830612 50.6824479 53.8884638 49.6820738 55.5232983 49.6573315"/>
                <polygon id="Fill-159" fill="#F3B229" points="62.8850801 48.1144621 63.4239047 49.6573315 65.0695022 49.6968858 63.7580216 50.6884979 64.2229827 52.2502682 62.8850801 51.3148583 61.5410573 52.2461792 62.0053853 50.6824479 60.7107879 49.6820738 62.3456223 49.6573315"/>
                <polygon id="Fill-161" fill="#F3B229" points="15.1298924 48.1144621 15.6679996 49.6573315 17.3135547 49.6968858 16.002834 50.6884979 16.4664022 52.2502682 15.1298924 51.3148583 13.7858697 52.2461792 14.2494801 50.6824479 12.9542073 49.6820738 14.5890418 49.6573315"/>
                <polygon id="Fill-163" fill="#F3B229" points="49.2557155 48.1174579 49.7816668 49.6650838 51.4183583 49.6998816 50.1129979 50.6902002 50.5915077 52.2472557 49.2407739 51.3106358 47.8960759 52.2472557 48.3671992 50.6834827 47.0726018 49.6944992 48.7087447 49.6596597"/>
                <polygon id="Fill-165" fill="#F3B229" points="21.9490888 48.1134441 22.490657 49.6650754 24.1355791 49.6985798 22.8295012 50.686854 23.2883421 52.2512946 21.9490888 51.3106275 20.5990304 52.2432419 21.0789752 50.686854 19.7768648 49.6891919 21.4137252 49.6596513"/>
                <polygon id="Fill-167" fill="#F3B229" points="28.7762879 48.1154426 29.3014794 49.6624009 30.9518041 49.7052514 29.6382554 50.6915646 30.1100541 52.2492877 28.7706742 51.315964 27.4281288 52.2492877 27.8977327 50.6841377 26.6052879 49.6905229 28.2318496 49.6624009"/>
                <polygon id="Fill-169" fill="#F3B229" points="42.4265875 48.1178126 42.9646525 49.6660226 44.5941265 49.7029483 43.2906233 50.6912225 43.7617466 52.2469011 42.4184414 51.3156218 41.0751362 52.2456076 41.5461752 50.6912225 40.2522953 49.6914742 41.8850616 49.6573022"/>
                <polygon id="Fill-171" fill="#F3B229" points="35.611097 48.1174579 36.1377236 49.6650838 37.7737398 49.6998816 36.469097 50.6902002 36.9455807 52.2472557 35.5961976 51.3106358 34.2514573 52.2472557 34.7218632 50.6834827 33.4279411 49.6944992 35.0648859 49.6596597"/>
                <polygon id="Fill-173" fill="#F3B229" points="22.6503164 36.6690028 18.3841216 36.6618263 18.3841216 34.6946241 17.9181054 34.1919753 15.6504073 34.1840478 15.1290989 34.6801876 15.1290989 42.1941757 15.6286703 42.6752115 17.8938781 42.6832225 18.3841216 42.2045232 18.3841216 40.3442179 22.6503164 40.3561092 22.6503164 43.713012 20.1495047 46.262681 13.3408814 46.262681 10.8746801 43.6875187 10.8746801 33.1852591 13.3812742 30.7162426 20.1857612 30.7162426 22.6503164 33.1852591"/>
                <path d="M31.2217145,39.0629996 L33.1858541,39.0629996 L32.2078151,36.617891 L31.2217145,39.0629996 Z M36.4025522,30.7162426 L36.4025522,34.2335324 L35.6108184,34.2302779 L39.0009905,42.6863935 L39.9114125,42.6863935 L39.9114125,46.262681 L33.9710035,46.262681 L33.9710035,42.6863935 L34.4842502,42.6863935 L34.2656138,42.0051243 L30.1628898,42.0051243 L29.915932,42.6863935 L30.4073996,42.6863935 L30.4073996,46.262681 L24.4856041,46.262681 L24.4928638,42.6863935 L25.4178054,42.6863935 L28.8378184,34.2207232 L28.1712307,34.2191376 L28.1712307,30.7162426 L36.4025522,30.7162426 Z" id="Fill-175" fill="#F3B229"/>
                <path d="M49.6743914,34.7559959 L49.1700505,34.2622343 L47.040372,34.2574361 L47.040372,36.5006424 L49.1611447,36.5006424 L49.6743914,36.0012481 L49.6743914,34.7559959 Z M49.6743914,40.4670074 L49.1546869,39.9652765 L47.040372,39.9644838 L47.040372,42.7445525 L49.1546869,42.7477653 L49.6743914,42.2707768 L49.6743914,40.4670074 Z M53.9207064,39.253674 L53.9207064,43.7856493 L51.4319661,46.2626768 L41.8512616,46.2626768 L41.8512616,42.731034 L42.8004726,42.731034 L42.8004726,34.2470468 L41.8852388,34.2470468 L41.8835927,30.7162385 L51.4634531,30.7162385 L53.9207064,33.2737933 L53.9207064,37.2154159 L52.8925668,38.2357758 L53.9207064,39.253674 Z" id="Fill-177" fill="#F3B229"/>
                <polygon id="Fill-179" fill="#F3B229" points="66.4425934 34.3085021 66.4425934 43.8088019 63.944272 46.2626726 58.2791843 46.2626726 55.8194408 43.7856451 55.8194408 40.0362866 60.0721713 40.0474269 60.0698921 42.2954732 60.5758791 42.7725452 61.6693142 42.7773434 62.1906648 42.2978097 62.1906648 34.286889 60.8695187 34.286889 60.8695187 30.7162343 67.3828564 30.7162343 67.3828564 34.3044966"/>
                <polygon id="Fill-181" fill="#F3B229" points="32.9164882 19.3334236 33.4567057 20.8810494 35.0968583 20.9165148 33.78867 21.9061242 34.2543486 23.4712741 32.9111278 22.5292301 31.5717901 23.4564621 32.0496668 21.8974456 30.7408031 20.9051659 32.3843746 20.8722874"/>
                <polygon id="Fill-183" fill="#F3B229" points="26.868407 18.9171392 27.40242 20.4595079 29.0405466 20.5070732 27.7230304 21.4852502 28.2041992 23.0524029 26.8459103 22.1157413 25.5100759 23.0403447 25.9811148 21.4806188 24.685209 20.4876716 26.3247285 20.4595079"/>
                <polygon id="Fill-185" fill="#F3B229" points="14.7523184 18.9158959 15.2870911 20.4541756 16.9306203 20.498403 15.6266528 21.4839651 16.0834677 23.0550816 14.7488573 22.1097414 13.4048768 23.0416464 13.8766333 21.4806272 12.5712729 20.4862613 14.207458 20.4541756"/>
                <polygon id="Fill-187" fill="#F3B229" points="8.69635702 18.9158959 9.23112975 20.4541756 10.874659 20.498403 9.57069144 21.4839651 10.0275064 23.0550816 8.69289598 22.1097414 7.34891546 23.0416464 7.82067196 21.4806272 6.51531157 20.4862613 8.15149663 20.4541756"/>
                <polygon id="Fill-189" fill="#F3B229" points="20.8083599 18.9212157 21.3558794 20.4594954 22.9839184 20.5030969 21.6798664 21.4919552 22.1448697 23.0483849 20.803506 22.1157287 19.4561911 23.0477173 19.9373599 21.4886173 18.6299314 20.4943349 20.2714768 20.4594954"/>
                <polygon id="Fill-191" fill="#F3B229" points="38.9724453 19.3334236 39.5126629 20.8810494 41.1528155 20.9165148 39.8446272 21.9061242 40.3103057 23.4712741 38.9670849 22.5292301 37.6277473 23.4564621 38.1056239 21.8974456 36.7967603 20.9051659 38.4403317 20.8722874"/>
                <polygon id="Fill-193" fill="#F3B229" points="45.0284025 19.3334236 45.56862 20.8810494 47.2087726 20.9165148 45.9005843 21.9061242 46.3662629 23.4712741 45.0230421 22.5292301 43.6837044 23.4564621 44.161581 21.8974456 42.8527174 20.9051659 44.4962888 20.8722874"/>
                <polygon id="Fill-195" fill="#F3B229" points="51.0890447 19.3238271 50.5489116 20.8715364 48.9087168 20.90696 50.2168629 21.8965694 49.7511843 23.4617193 51.0944895 22.5196753 52.4337427 23.446949 51.9558661 21.8878491 53.2647297 20.8956111 51.6212005 20.8627743"/>
                <polygon id="Fill-197" fill="#F3B229" points="57.1372187 18.9076053 56.6031213 20.449974 54.9649947 20.4975393 56.2825953 21.4757163 55.8013843 23.0428272 57.159631 22.1062073 58.4954655 23.0308107 58.0244265 21.4710432 59.3203746 20.4780959 57.6808551 20.449974"/>
                <polygon id="Fill-199" fill="#F3B229" points="69.253244 18.9063035 68.7184713 20.4446249 67.0749421 20.4888524 68.3789096 21.4744145 67.9221369 23.0455309 69.2567051 22.1002325 70.6006856 23.0320958 70.1289291 21.4710766 71.4342895 20.4767524 69.7981466 20.4446249"/>
                <polygon id="Fill-201" fill="#F3B229" points="63.1971772 18.9116609 62.6496577 20.4499823 61.0216609 20.4935004 62.3256707 21.4824422 61.8606252 23.0387884 63.202031 22.106174 64.549346 23.0382042 64.0681772 21.4790625 65.3756057 20.4848218 63.7340603 20.4499823"/>
                <polygon id="Fill-203" fill="#F3B229" points="21.0173434 8.73021288 21.5555772 10.2738332 23.2004992 10.31272 21.8909603 11.3056255 22.3545707 12.8667282 21.0173434 11.9314018 19.6733207 12.8619717 20.1355382 11.298908 18.8423759 10.2992849 20.4771681 10.2738332"/>
                <polygon id="Fill-205" fill="#F3B229" points="57.0063281 8.72067895 56.4680944 10.2642993 54.8231723 10.3031861 56.1327112 11.2960499 55.6691009 12.8571526 57.0063281 11.9218261 58.3503086 12.8524378 57.8881333 11.289374 59.1812957 10.2897509 57.5465457 10.2642993"/>
                <polygon id="Fill-207" fill="#F3B229" points="13.9782655 13.5030273 14.5130382 15.0453542 16.1518401 15.0929195 14.839009 16.0718058 15.3140577 17.6382492 13.9585966 16.7016293 12.6199765 17.6268168 13.0931259 16.0677586 11.7965025 15.0735179 13.4366973 15.0453542"/>
                <polygon id="Fill-209" fill="#F3B229" points="32.7518314 14.3523189 33.2898963 15.8865931 34.925406 15.9314881 33.6233379 16.9250612 34.0951366 18.4794464 32.7394645 17.5441616 31.4036723 18.4753991 31.8815489 16.907704 30.5794385 15.918053 32.2162989 15.8845486"/>
                <polygon id="Fill-211" fill="#F3B229" points="39.0112807 14.3523189 39.5493457 15.8865931 41.1848132 15.9314881 39.8827872 16.9250612 40.3545859 18.4794464 38.9989138 17.5441616 37.6631216 18.4753991 38.1409983 16.907704 36.8388457 15.918053 38.4757483 15.8845486"/>
                <polygon id="Fill-213" fill="#F3B229" points="45.2706035 14.3523189 45.8087528 15.8865931 47.4442203 15.9314881 46.1421099 16.9250612 46.6139086 18.4794464 45.258321 17.5441616 43.9224444 18.4753991 44.400321 16.907704 43.098295 15.918053 44.7351554 15.8845486"/>
                <polygon id="Fill-215" fill="#F3B229" points="20.2359843 13.9348121 20.7821953 15.4724242 22.4109096 15.5152747 21.1069421 16.504884 21.5717765 18.0619395 20.2298642 17.1286575 18.8825492 18.0612719 19.3637181 16.5022137 18.0562473 15.5072637 19.6985947 15.4724242"/>
                <polygon id="Fill-217" fill="#F3B229" points="26.4953914 13.9348121 27.0416025 15.4724242 28.6703168 15.5152747 27.3663492 16.504884 27.8311836 18.0619395 26.4892713 17.1286575 25.1419564 18.0612719 25.6231252 16.5022137 24.3156544 15.5072637 25.9580018 15.4724242"/>
                <polygon id="Fill-219" fill="#F3B229" points="64.045444 13.5030273 63.5106713 15.0453542 61.8718272 15.0929195 63.1847005 16.0718058 62.7096518 17.6382492 64.0650707 16.7016293 65.4036908 17.6268168 64.9305836 16.0677586 66.227207 15.0735179 64.58697 15.0453542"/>
                <polygon id="Fill-221" fill="#F3B229" points="51.5313317 13.9348121 50.9931823 15.4690862 49.3577148 15.5139812 50.6597408 16.5075961 50.1879421 18.0619395 51.5436142 17.1266131 52.8794064 18.0578923 52.4016142 16.4901972 53.7036401 15.5005461 52.0667797 15.4670418"/>
                <polygon id="Fill-223" fill="#F3B229" points="57.7878138 13.9348121 57.2415184 15.4724242 55.6128041 15.5152747 56.9167716 16.504884 56.4519372 18.0619395 57.7938918 17.1286575 59.1411645 18.0612719 58.6599957 16.5022137 59.9674664 15.5072637 58.3252035 15.4724242"/>
                <polygon id="Fill-231" fill="#F3B229" points="29.3384619 24.3272123 29.8793547 25.8621541 31.5134716 25.9070491 30.2115723 26.9007057 30.6831599 28.4550074 29.3276567 27.5204737 27.9904716 28.450376 28.4675885 26.8832651 27.1669976 25.8936557 28.8036892 25.8601931"/>
                <polygon id="Fill-233" fill="#F3B229" points="22.8961684 24.3272123 23.4396781 25.8655337 25.0697853 25.908426 23.765058 26.8986195 24.2299346 28.4550074 22.8865872 27.5217671 21.5461099 28.4544232 22.0204411 26.894614 20.7151229 25.9003733 22.3553177 25.8655337"/>
                <polygon id="Fill-235" fill="#F3B229" points="16.4484343 24.3272123 16.9919018 25.8655337 18.622009 25.908426 17.3173239 26.8986195 17.7821583 28.4550074 16.4388531 27.5217671 15.0983336 28.4544232 15.572707 26.894614 14.2673466 25.9003733 15.9075414 25.8655337"/>
                <polygon id="Fill-237" fill="#F3B229" points="10.0061408 24.3272123 10.5421375 25.8722096 12.176972 25.9151436 10.8729622 26.8986195 11.332394 28.4550074 9.99520897 27.5270661 8.65046871 28.4489991 9.12973819 26.8933205 7.81690702 25.8983705 9.45845248 25.8722096"/>
                <polygon id="Fill-239" fill="#F3B229" points="35.791396 24.3272123 36.3355388 25.8655337 37.9649285 25.9077584 36.6609187 26.8986195 37.1245713 28.4550074 35.7818992 27.5217671 34.4419707 28.4544232 34.9177369 26.894614 33.6110259 25.9003733 35.2518538 25.8655337"/>
                <polygon id="Fill-241" fill="#F3B229" points="42.2391216 24.3272123 42.7833067 25.8655337 44.4126963 25.9077584 43.1087288 26.8986195 43.572297 28.4550074 42.2296671 27.5217671 40.8896963 28.4544232 41.3655047 26.894614 40.0587515 25.9003733 41.6996638 25.8655337"/>
                <polygon id="Fill-243" fill="#F3B229" points="55.1329437 24.317645 54.5920931 25.8526285 52.9580184 25.8974818 54.2599599 26.8911384 53.7883301 28.4454818 55.1437489 27.5109064 56.4810184 28.4408087 56.0038171 26.8736978 57.3044924 25.8840884 55.6677164 25.8506258"/>
                <polygon id="Fill-245" fill="#F3B229" points="61.5752372 24.317645 61.0317697 25.8559664 59.4017047 25.8988587 60.7063476 26.8890939 60.2415132 28.4454818 61.5848184 27.5121998 62.9253379 28.4448559 62.4509645 26.8850467 63.7563249 25.890806 62.1160879 25.8559664"/>
                <polygon id="Fill-247" fill="#F3B229" points="68.0175307 24.317645 67.481534 25.8626423 65.8466996 25.9055762 67.1507093 26.8890939 66.6912775 28.4454818 68.0285047 27.5174988 69.3732028 28.4394318 68.8939333 26.8837532 70.2068067 25.8888032 68.5652612 25.8626423"/>
                <polygon id="Fill-249" fill="#F3B229" points="48.6800645 24.317645 48.1358794 25.8559664 46.506532 25.8981911 47.8104996 26.8890939 47.3468892 28.4454818 48.689519 27.5121998 50.0294898 28.4448559 49.5537236 26.8850467 50.8604346 25.890806 49.2195223 25.8559664"/>
            </g>
        </g>
    </g>
</svg>